# xmcd
#
# Track frame offsets:
# 150
# 19686
# 38953
# 57742
# 74166
# 93760
# 108967
# 126557
# 146330
# 165578
# 180946
# 212368
#
# Disc length: 4440 seconds
#
#
# Revision: 2
# Processed by: cddbd v1.5.2PL0 Copyright (c) Steve Scherf et al.
# Submitted via: FreeRIP 2.951 
#
DISCID=a611560c
DTITLE=El Arrebato - Una Noche Con Arte
DYEAR=1900
DGENRE=
TTITLE0=Una Noche Con Arte
TTITLE1=Te Lo Juro Por Alá
TTITLE2=Un Amor Tan Grande
TTITLE3=Completamente Un Incompleto
TTITLE4=Nada Sin Ti
TTITLE5=Un Millón De Euros
TTITLE6=Quiero Quererte Querer
TTITLE7=Por Un Beso De Tu Boca
TTITLE8=Será Será
TTITLE9=No Se Entera De Ná
TTITLE10=Me Gusta Lo Que Soy
TTITLE11=Bonus Track
EXTD=
EXTT0=
EXTT1=
EXTT2=
EXTT3=
EXTT4=
EXTT5=
EXTT6=
EXTT7=
EXTT8=
EXTT9=
EXTT10=
EXTT11=
PLAYORDER=
